<svg version="1" width="275" height="312.5" xmlns="http://www.w3.org/2000/svg" xmlns:xlink="http://www.w3.org/1999/xlink"><defs><linearGradient x1=".052" y1=".977" x2=".783" y2=".008" id="e" xlink:href="#a"/><linearGradient id="a"><stop offset="0" stop-opacity=".5"/><stop offset="1" stop-opacity=".05"/></linearGradient><linearGradient x1="1.557" y1="-.553" x2=".063" y2=".547" id="g" xlink:href="#b"/><linearGradient id="b"><stop offset="0" stop-color="#fff"/><stop offset="1" stop-color="#fff" stop-opacity="0"/></linearGradient><linearGradient x1=".88" y1=".211" x2=".085" y2="1.18" id="f" xlink:href="#c"/><linearGradient id="c"><stop offset="0" stop-color="#dadada"/><stop offset=".349" stop-color="#f1f1f1"/><stop offset="1" stop-color="#f0f0f0"/></linearGradient><linearGradient x1=".632" y1=".328" x2="-.376" y2="1.328" id="h" xlink:href="#c"/><filter id="d"><feGaussianBlur in="SourceAlpha" result="blur-out" stdDeviation="3"/><feOffset in="blur-out" result="the-shadow" dx="3" dy="3"/></filter></defs><path d="M-111.326-84.202V92.146H49.607V-40.115L9.374-84.202H-111.326z" transform="matrix(1.59178 0 0 1.62345 182.307 142.25)" filter="url(#d)"/><path d="M-111.326-84.202V92.146H49.607V-40.115L9.374-84.202H-111.326z" transform="matrix(1.59178 0 0 1.62345 182.307 142.25)" fill-rule="evenodd" stroke="#000" stroke-width=".512" stroke-opacity=".365"/><path d="M-107.833-72.168l-.725 161.634h158.01l.091-39.955C46.01 50.87 10.313.313-34.627 2.488c-44.98 2.176-33.341-68.133-73.206-74.656z" transform="matrix(1.59178 0 0 1.62345 182.307 142.25)" fill-rule="evenodd"/><text x="225.488" y="30.561" transform="matrix(1.3 0 0 1.69 -274.246 -23.168)" font-size="10" font-weight="700" stroke-width="1pt" font-family="courier new" writing-mode="lr"><tspan>h1 { color: white;</tspan><tspan x="225.488" y="40.561"> background: orange;</tspan><tspan x="225.488" y="50.561"> border: 1px solid black;</tspan><tspan x="225.488" y="60.561"> padding: 0 0 0 0;</tspan><tspan x="225.488" y="70.561"> font-weight: bold;</tspan><tspan x="225.488" y="80.561">}</tspan><tspan x="225.488" y="90.561">/* begin: seaside-theme */</tspan><tspan x="225.488" y="110.561">body {</tspan><tspan x="225.488" y="120.561"> background-color:white;</tspan><tspan x="225.488" y="130.561"> color:black;</tspan><tspan x="225.488" y="140.561"> font-family:Arial,sans-serif;</tspan><tspan x="225.488" y="150.561"> margin: 0 4px 0 0;</tspan><tspan x="225.488" y="160.561"> border: 12px solid;</tspan><tspan x="225.488" y="170.561">}</tspan></text><path d="M48.966-40.115c-12.13-3.591-27.847-3.082-39.72-1.035 2.05-13.155 2.306-29.641-.513-43.052l40.233 44.087z" transform="matrix(1.59178 0 0 1.62345 182.307 142.25)" fill-rule="evenodd"/><g><path d="M271.16 304.18l-2.005-1.958-.04-24.052 2.046-1.974v27.984z" fill-rule="evenodd"/><path d="M201.139 278.17h68.016v24.06h-68.016z"/><path d="M199.166 276.18l72.002.008-2.037 1.974-67.968.024-1.997-2.006z" fill-rule="evenodd"/><path d="M199.173 304.18l71.995.008-2.014-1.974h-68.015l-1.966 1.967z" fill-rule="evenodd"/><path d="M201.155 302.198l-1.99 1.982v-28l1.982 1.982.008 24.036z" fill-rule="evenodd"/></g><g font-size="12" font-style="italic" font-weight="400" stroke-width="1pt" font-family="arial #000" writing-mode="lr"><text x="77.848" y="179.018" transform="matrix(2.10032 0 0 2.10032 45.941 -73.66)"><tspan>CSS</tspan></text><text x="77.168" y="178.376" transform="matrix(2.10032 0 0 2.10032 45.941 -73.66)"><tspan>CSS</tspan></text></g></svg>